<mxfile host="app.diagrams.net" modified="2023-07-17T07:58:31.468Z" agent="Mozilla/5.0 (Windows NT 10.0; Win64; x64) AppleWebKit/537.36 (KHTML, like Gecko) Chrome/114.0.0.0 Safari/537.36" etag="BlN6PjDUA02mzmREo2SJ" version="21.6.2" type="github">
  <diagram name="第 1 页" id="R1QFbY30EkdIVhdsWQ4o">
    <mxGraphModel dx="1434" dy="756" grid="1" gridSize="10" guides="1" tooltips="1" connect="1" arrows="1" fold="1" page="1" pageScale="1" pageWidth="827" pageHeight="1169" math="0" shadow="0">
      <root>
        <mxCell id="0" />
        <mxCell id="1" parent="0" />
        <mxCell id="9hUXBNucg2V9Jbg0CY_5-1" value="" style="shape=image;html=1;verticalAlign=top;verticalLabelPosition=bottom;labelBackgroundColor=#ffffff;imageAspect=0;aspect=fixed;image=https://cdn4.iconfinder.com/data/icons/transportation-190/1000/transportation_png_new_pt_collection_boat_pt_boat-128.png" vertex="1" parent="1">
          <mxGeometry x="670" y="140" width="128" height="128" as="geometry" />
        </mxCell>
        <mxCell id="9hUXBNucg2V9Jbg0CY_5-2" value="" style="shape=image;html=1;verticalAlign=top;verticalLabelPosition=bottom;labelBackgroundColor=#ffffff;imageAspect=0;aspect=fixed;image=https://cdn4.iconfinder.com/data/icons/transportation-190/1000/transportation_transport_ferry_boat_train_ferry_boat_ship-128.png" vertex="1" parent="1">
          <mxGeometry x="810" y="271" width="128" height="128" as="geometry" />
        </mxCell>
        <mxCell id="9hUXBNucg2V9Jbg0CY_5-3" value="" style="shape=image;html=1;verticalAlign=top;verticalLabelPosition=bottom;labelBackgroundColor=#ffffff;imageAspect=0;aspect=fixed;image=https://cdn4.iconfinder.com/data/icons/transportation-190/1000/ship_icebreaker_ship_iceboat_iceberg_icebreaker_ice_boat-128.png" vertex="1" parent="1">
          <mxGeometry x="522" y="276" width="128" height="128" as="geometry" />
        </mxCell>
        <mxCell id="9hUXBNucg2V9Jbg0CY_5-4" value="" style="shape=image;html=1;verticalAlign=top;verticalLabelPosition=bottom;labelBackgroundColor=#ffffff;imageAspect=0;aspect=fixed;image=https://cdn4.iconfinder.com/data/icons/transportation-190/1000/boat_tugboat_tug_seagoing_tugboats_harbour_tugboats_ship_river_tugboats-128.png" vertex="1" parent="1">
          <mxGeometry x="660" y="418" width="128" height="128" as="geometry" />
        </mxCell>
        <mxCell id="9hUXBNucg2V9Jbg0CY_5-5" value="" style="endArrow=none;html=1;rounded=0;entryX=0.078;entryY=0.781;entryDx=0;entryDy=0;entryPerimeter=0;strokeWidth=3;" edge="1" parent="1" target="9hUXBNucg2V9Jbg0CY_5-1">
          <mxGeometry width="50" height="50" relative="1" as="geometry">
            <mxPoint x="620" y="300" as="sourcePoint" />
            <mxPoint x="670" y="250" as="targetPoint" />
          </mxGeometry>
        </mxCell>
        <mxCell id="9hUXBNucg2V9Jbg0CY_5-6" value="" style="endArrow=none;html=1;rounded=0;strokeWidth=3;" edge="1" parent="1">
          <mxGeometry width="50" height="50" relative="1" as="geometry">
            <mxPoint x="770" y="465" as="sourcePoint" />
            <mxPoint x="850" y="370" as="targetPoint" />
          </mxGeometry>
        </mxCell>
        <mxCell id="9hUXBNucg2V9Jbg0CY_5-7" value="" style="endArrow=none;html=1;rounded=0;strokeWidth=3;" edge="1" parent="1">
          <mxGeometry width="50" height="50" relative="1" as="geometry">
            <mxPoint x="670" y="467.5" as="sourcePoint" />
            <mxPoint x="576" y="372.5" as="targetPoint" />
          </mxGeometry>
        </mxCell>
        <mxCell id="9hUXBNucg2V9Jbg0CY_5-8" value="" style="endArrow=none;html=1;rounded=0;strokeWidth=3;" edge="1" parent="1">
          <mxGeometry width="50" height="50" relative="1" as="geometry">
            <mxPoint x="862" y="311" as="sourcePoint" />
            <mxPoint x="780" y="240" as="targetPoint" />
          </mxGeometry>
        </mxCell>
        <mxCell id="9hUXBNucg2V9Jbg0CY_5-9" value="" style="endArrow=none;html=1;rounded=0;strokeWidth=3;" edge="1" parent="1">
          <mxGeometry width="50" height="50" relative="1" as="geometry">
            <mxPoint x="733.5" y="440" as="sourcePoint" />
            <mxPoint x="733.5" y="240" as="targetPoint" />
          </mxGeometry>
        </mxCell>
        <mxCell id="9hUXBNucg2V9Jbg0CY_5-10" value="" style="endArrow=none;html=1;rounded=0;strokeWidth=3;" edge="1" parent="1">
          <mxGeometry width="50" height="50" relative="1" as="geometry">
            <mxPoint x="640" y="339.5" as="sourcePoint" />
            <mxPoint x="820" y="339.5" as="targetPoint" />
          </mxGeometry>
        </mxCell>
        <mxCell id="9hUXBNucg2V9Jbg0CY_5-12" value="&lt;font color=&quot;#0000ff&quot; style=&quot;font-size: 22px;&quot;&gt;本地执行&lt;/font&gt;" style="text;html=1;align=center;verticalAlign=middle;resizable=0;points=[];autosize=1;strokeColor=none;fillColor=none;" vertex="1" parent="1">
          <mxGeometry x="420" y="320" width="110" height="40" as="geometry" />
        </mxCell>
        <mxCell id="9hUXBNucg2V9Jbg0CY_5-13" value="&lt;font color=&quot;#0000ff&quot; style=&quot;font-size: 22px;&quot;&gt;本地执行&lt;/font&gt;" style="text;html=1;align=center;verticalAlign=middle;resizable=0;points=[];autosize=1;strokeColor=none;fillColor=none;" vertex="1" parent="1">
          <mxGeometry x="678" y="130" width="110" height="40" as="geometry" />
        </mxCell>
        <mxCell id="9hUXBNucg2V9Jbg0CY_5-14" value="&lt;font color=&quot;#0000ff&quot; style=&quot;font-size: 22px;&quot;&gt;本地执行&lt;/font&gt;" style="text;html=1;align=center;verticalAlign=middle;resizable=0;points=[];autosize=1;strokeColor=none;fillColor=none;" vertex="1" parent="1">
          <mxGeometry x="920" y="320" width="110" height="40" as="geometry" />
        </mxCell>
        <mxCell id="9hUXBNucg2V9Jbg0CY_5-15" value="&lt;font color=&quot;#0000ff&quot; style=&quot;font-size: 22px;&quot;&gt;本地执行&lt;/font&gt;" style="text;html=1;align=center;verticalAlign=middle;resizable=0;points=[];autosize=1;strokeColor=none;fillColor=none;" vertex="1" parent="1">
          <mxGeometry x="670" y="510" width="110" height="40" as="geometry" />
        </mxCell>
        <mxCell id="9hUXBNucg2V9Jbg0CY_5-16" value="&lt;font color=&quot;#0000ff&quot; style=&quot;font-size: 22px;&quot;&gt;有限交互&lt;/font&gt;" style="text;html=1;align=center;verticalAlign=middle;resizable=0;points=[];autosize=1;strokeColor=none;fillColor=none;rotation=45;" vertex="1" parent="1">
          <mxGeometry x="550" y="420" width="110" height="40" as="geometry" />
        </mxCell>
        <mxCell id="9hUXBNucg2V9Jbg0CY_5-18" value="&lt;font color=&quot;#0000ff&quot; style=&quot;font-size: 22px;&quot;&gt;有限交互&lt;/font&gt;" style="text;html=1;align=center;verticalAlign=middle;resizable=0;points=[];autosize=1;strokeColor=none;fillColor=none;rotation=40;" vertex="1" parent="1">
          <mxGeometry x="780" y="240" width="110" height="40" as="geometry" />
        </mxCell>
        <mxCell id="9hUXBNucg2V9Jbg0CY_5-19" value="" style="shape=flexArrow;endArrow=classic;startArrow=classic;html=1;rounded=0;fillColor=#dae8fc;strokeColor=#6c8ebf;" edge="1" parent="1">
          <mxGeometry width="100" height="100" relative="1" as="geometry">
            <mxPoint x="780" y="490" as="sourcePoint" />
            <mxPoint x="910" y="490" as="targetPoint" />
          </mxGeometry>
        </mxCell>
        <mxCell id="9hUXBNucg2V9Jbg0CY_5-20" value="&lt;font style=&quot;font-size: 24px;&quot;&gt;任务环境&lt;/font&gt;" style="rounded=0;whiteSpace=wrap;html=1;strokeWidth=3;fillColor=#dae8fc;strokeColor=#6c8ebf;" vertex="1" parent="1">
          <mxGeometry x="920" y="460" width="170" height="60" as="geometry" />
        </mxCell>
        <mxCell id="9hUXBNucg2V9Jbg0CY_5-21" value="&lt;font color=&quot;#0000ff&quot; style=&quot;font-size: 22px;&quot;&gt;分布感知&lt;/font&gt;" style="text;html=1;align=center;verticalAlign=middle;resizable=0;points=[];autosize=1;strokeColor=none;fillColor=none;" vertex="1" parent="1">
          <mxGeometry x="798" y="506" width="110" height="40" as="geometry" />
        </mxCell>
        <mxCell id="9hUXBNucg2V9Jbg0CY_5-22" value="" style="shape=flexArrow;endArrow=classic;startArrow=classic;html=1;rounded=0;fillColor=#dae8fc;strokeColor=#6c8ebf;" edge="1" parent="1">
          <mxGeometry width="100" height="100" relative="1" as="geometry">
            <mxPoint x="548" y="200" as="sourcePoint" />
            <mxPoint x="678" y="200" as="targetPoint" />
          </mxGeometry>
        </mxCell>
        <mxCell id="9hUXBNucg2V9Jbg0CY_5-23" value="&lt;font color=&quot;#0000ff&quot; style=&quot;font-size: 22px;&quot;&gt;反馈调整&lt;/font&gt;" style="text;html=1;align=center;verticalAlign=middle;resizable=0;points=[];autosize=1;strokeColor=none;fillColor=none;" vertex="1" parent="1">
          <mxGeometry x="560" y="140" width="110" height="40" as="geometry" />
        </mxCell>
        <mxCell id="9hUXBNucg2V9Jbg0CY_5-24" value="&lt;font style=&quot;font-size: 24px;&quot;&gt;任务目标&lt;/font&gt;" style="rounded=0;whiteSpace=wrap;html=1;strokeWidth=3;fillColor=#dae8fc;strokeColor=#6c8ebf;" vertex="1" parent="1">
          <mxGeometry x="370" y="170" width="170" height="60" as="geometry" />
        </mxCell>
      </root>
    </mxGraphModel>
  </diagram>
</mxfile>
